# xmcd CD database file
#
# Track frame offsets:
#	150
#	25637
#	43172
#	66840
#	89702
#	115720
#	138380
#	155625
#	173507
#
# Disc length: 2612 seconds
#
# Revision: 0
# Processed by: cddbd v1.4PL0 Copyright (c) Steve Scherf et al.
# Submitted via: CDex 1.50beta9
#
DISCID=730a3209
DTITLE=Eddie Gomez - Power Play
DYEAR=1988
DGENRE=Jazz
TTITLE0=Power Play
TTITLE1=Loco Motive
TTITLE2=Spanish Flower
TTITLE3=Mel
TTITLE4=Amethyst
TTITLE5=Mr. Go
TTITLE6=Very Early
TTITLE7=W. 11oth St.
TTITLE8=Forever
EXTD=YEAR: 1988
EXTT0=
EXTT1=
EXTT2=
EXTT3=
EXTT4=
EXTT5=
EXTT6=
EXTT7=
EXTT8=
PLAYORDER=
